<?xml version="1.0" encoding="utf-8"?>
<!-- Generator: Adobe Illustrator 19.2.1, SVG Export Plug-In . SVG Version: 6.00 Build 0)  -->
<svg version="1.1" id="layer" xmlns="http://www.w3.org/2000/svg" xmlns:xlink="http://www.w3.org/1999/xlink" x="0px" y="0px"
	 viewBox="0 0 652 652" style="enable-background:new 0 0 652 652;" xml:space="preserve">
<style type="text/css">
	.st0{fill:#231815;}
	.st1{fill:#E50012;}
</style>
<path class="st0" d="M255.4,330.1c-2.2-2.7-5.1-4.1-8.7-4.1c-2.5,0-5.5,1.1-5.5,4c0,7.2,25.3,1.1,25.3,19.6c0,12.4-12,16-22.4,16
	c-6.8,0-14.3-1.7-19.1-6.6l9.1-10.1c2.8,3.4,6.1,5.3,10.6,5.3c3.4,0,6.8-0.9,6.8-3.5c0-7.8-25.3-1.2-25.3-19.7
	c0-11.4,10.2-16.4,20.4-16.4c6.4,0,13.5,1.6,18,6.4L255.4,330.1z"/>
<path class="st0" d="M307.3,327.8h-13.2V344c0,5.2,0.6,9,7.1,9c1.6,0,4.8-0.2,6.1-1.4v12.5c-3.3,1.2-7,1.5-10.5,1.5
	c-10,0-17.7-4.1-17.7-14.7v-23.1h-9.6v-12h9.6v-14.4h15v14.4h13.2V327.8z"/>
<path class="st0" d="M360.9,356c-4.8,6.1-12.7,9.6-20.5,9.6c-15,0-27-10-27-25.5c0-15.5,12-25.5,27-25.5c14,0,22.8,10,22.8,25.5v4.7
	h-34.8c1.2,5.7,5.5,9.4,11.3,9.4c4.9,0,8.2-2.5,10.7-5.9L360.9,356z M348.2,334.6c0.1-5-3.8-9.2-9.2-9.2c-6.6,0-10.2,4.5-10.6,9.2
	H348.2z"/>
<path class="st0" d="M372.3,315.8h15v7.8h0.2c3.2-5.9,7.4-9,14-9c1.7,0,3.6,0.1,5,0.5v13.7c-2.1-0.6-4.2-1-6.4-1
	c-11.4,0-12.8,6.6-12.8,16.3v20.3h-15V315.8z"/>
<path class="st0" d="M461.2,364.4h-13.8V358h-0.2c-2.3,3.5-8.1,7.6-14.9,7.6c-14.4,0-23.9-10.4-23.9-25.1c0-13.5,8.4-25.9,22.2-25.9
	c6.2,0,12,1.7,15.4,6.4h0.2v-32.2h15V364.4z M435.4,327.8c-7.5,0-12,5-12,12.3c0,7.3,4.5,12.3,12,12.3c7.5,0,12-5,12-12.3
	C447.4,332.8,442.9,327.8,435.4,327.8"/>
<path class="st0" d="M503.7,358.3h-0.2c-3.3,5.2-9.3,7.3-15.4,7.3c-9.1,0-17.3-5.2-17.3-15c0-16.8,20.4-17.1,32.9-17.1
	c0-5.3-4.4-8.7-9.6-8.7c-4.9,0-9,2.2-12.2,5.8l-8-8.2c5.5-5.2,13.5-7.8,21.4-7.8c17.5,0,22.2,8.9,22.2,25.1v24.7h-13.8V358.3z
	 M500,343.1c-4.6,0-14.8,0.4-14.8,7c0,3.6,3.8,5.3,7.1,5.3c5.9,0,11.4-3.1,11.4-9.1v-3.2H500z"/>
<path class="st0" d="M525.9,315.8h14.4v6.6h0.2c2-3.8,6.9-7.8,14.2-7.8c6.8,0,12.4,2.8,15,8.7c3.5-6.2,8.2-8.7,15.4-8.7
	c13.2,0,17.2,9.3,17.2,21.1v28.7h-15v-28.3c0-4.5-1.7-8.3-6.6-8.3c-6.9,0-9.1,4.9-9.1,10.9v25.7h-15v-25.7c0-3.6,0.2-10.9-6.7-10.9
	c-7.8,0-9,6.1-9,12.4v24.2h-15V315.8z"/>
<path class="st0" d="M617,346.1c5.1,0,9.3,4.2,9.3,9.3c0,5.2-4.2,9.4-9.3,9.4s-9.3-4.2-9.3-9.4C607.7,350.4,611.8,346.1,617,346.1
	 M617,362.6c3.7,0,6.8-3.2,6.8-7.1c0-3.9-3-7.1-6.8-7.1c-3.7,0-6.8,3.2-6.8,7.1C610.2,359.4,613.2,362.6,617,362.6 M613.4,350.5h3.5
	c1.1,0,4.2,0,4.2,3.2c0,2-1.2,2.6-2.3,2.7l2.5,3.9h-2.6l-2.2-3.8H616v3.8h-2.6V350.5z M615.9,354.6h1c0.6,0,1.5,0,1.5-1
	c0-1-0.9-1.1-1.5-1.1h-1V354.6z"/>
<polygon class="st1" points="53.1,356 47.5,356 47.5,301.5 53.1,301.5 53.1,293.2 26.3,293.2 26.3,301.5 31.9,301.5 31.9,356 
	26.3,356 26.3,364.4 31.9,364.4 31.9,364.4 47.5,364.4 47.5,364.4 53.1,364.4 "/>
<path class="st1" d="M141.9,364.4h15v-24.2c0-6.3,1.2-12.4,9-12.4c6.9,0,6.7,7.3,6.7,10.9v25.7h15v-25.7c0-6,2.2-10.9,9.1-10.9
	c4.9,0,6.6,3.8,6.6,8.3v28.3h15v-28.7c0-11.8-4-21.1-17.2-21.1c-7.2,0-11.9,2.5-15.4,8.7c-2.6-5.9-8.2-8.7-15-8.7
	c-7.3,0-12.2,4-14.2,7.8h-0.2v-6.6h-14.4V356h-6.4v-16.4c0-16.2-4.7-25.1-22.2-25.1c-7.9,0-15.9,2.6-21.4,7.8l8,8.2
	c3.2-3.6,7.3-5.8,12.2-5.8c5.2,0,9.6,3.4,9.6,8.7c-12.5,0-32.9,0.3-32.9,17.1c0,9.8,8.2,15,17.3,15c6.1,0,12.1-2.1,15.4-7.3h0.2v6.1
	h13.8v0 M121.7,346.3c0,6-5.5,9.1-11.4,9.1c-3.3,0-7.1-1.7-7.1-5.3c0-6.6,10.2-7,14.8-7h3.7V346.3z"/>
</svg>
